<svg xmlns="http://www.w3.org/2000/svg" xml:space="preserve" width="2000" height="1500" data-id="lg_fpGT63avOz5nhYpYlF" data-version="1" viewBox="0 0 2000 1500"><path fill="#fff" stroke="transparent" d="M0 0h2000v1500H0z"/><g data-padding="20"><g transform="translate(-1577.023 -1193.133)scale(2.51009)"><path fill="#fff74f" d="M843.092 675.838a87.839 87.839 0 1 0 0 175.678 87.839 87.839 0 1 0 0-175.678"/><rect width="443.814" height="136.73" x="412.525" y="305.592" fill="none" rx="0" ry="0" transform="translate(458.59 404.49)"/><path d="M900.522 817.677q-10.29 0-17.3-1.94-7.02-1.94-9.68-3.75l2.42-12.46v-2.42q1.69 2.29 4.9 4.84 3.2 2.54 7.68 4.29 4.48 1.76 9.8 1.76 8.95 0 12.4-3.76 3.45-3.75 3.45-13.18v-39.93q0-3.88-.85-5.51-.84-1.63-1.69-1.75h18.63q-.84 0-1.69 1.69t-.85 5.69v39.81q0 10.64-3.32 16.39-3.33 5.75-9.44 7.99t-14.46 2.24m65.94-.01q-12.1 0-18.93-3.88-6.84-3.87-9.56-10.52-2.72-6.66-2.72-15.01 0-8.47 2.84-15.12 2.84-6.66 9.62-10.59 6.77-3.93 18.75-3.93t18.76 3.93q6.77 3.93 9.62 10.59 2.84 6.65 2.84 15.12 0 8.35-2.72 15.01-2.72 6.65-9.5 10.52-6.78 3.88-19 3.88m0-8.6q7.51 0 11.62-2.42t5.69-7.07q1.57-4.66 1.57-11.32 0-6.65-1.63-11.37-1.64-4.72-5.69-7.26t-11.56-2.54q-7.38 0-11.49 2.6-4.12 2.6-5.75 7.38t-1.63 11.31q0 6.42 1.57 11.08 1.57 4.65 5.69 7.13 4.11 2.48 11.61 2.48m69.34 8.6q-6.66 0-11.2-1.58-4.53-1.57-7.68-4.35l-.24.12.24 2.3v2.3h-14.76q.85 0 1.63-1.7.79-1.69.79-5.56v-68.97q0-3.88-.79-5.51-.78-1.63-1.63-1.75h14.76v29.28l-.24 2.3.24.24q1.57-1.57 4.3-2.97 2.72-1.39 6.47-2.29 3.75-.91 8.11-.91 11.25 0 17.78 3.93 6.54 3.93 9.38 10.59 2.84 6.65 2.84 15.12 0 8.35-2.78 15.01-2.78 6.65-9.32 10.52-6.53 3.88-17.9 3.88m-1.21-8.6q7.5 0 11.61-2.42 4.12-2.42 5.69-7.07 1.57-4.66 1.57-11.32 0-6.65-1.63-11.37t-5.69-7.26q-4.05-2.54-11.55-2.54-7.26 0-11.07 2.84-3.82 2.84-5.21 7.68t-1.39 10.65q0 9.56 3.75 15.19 3.75 5.62 13.92 5.62m66.05 8.6q-9.56 0-15.73-2.24t-9.68-6.23q-3.51-4-4.9-9.32-1.39-5.33-1.39-11.62 0-13.67 7.81-21.66 7.8-7.98 23.17-7.98 8.95 0 14.46 2.42 5.5 2.42 8.35 6.41 2.84 3.99 3.87 8.65t1.03 9.14v5.68q0-.36-3.33-.78-3.33-.43-11.19-.43h-31.83q0 8.96 5.33 14.16 5.32 5.2 15.85 5.2 9.07 0 14.94-2.23 5.87-2.24 7.81-4.42v2.42l1.21 7.99q-2.67 1.57-9.38 3.2-6.72 1.64-16.4 1.64m-14.52-35.94h29.41q0-3.15-1.34-6.54-1.33-3.38-4.71-5.74-3.39-2.36-9.56-2.36-5.21 0-9.08 1.75-3.87 1.76-5.99 4.54t-2.12 5.93q0 1.21.73 1.81.73.61 2.66.61m63.78 34.73h-17.18q.84 0 1.63-1.7.79-1.69.79-5.56v-40.9q0-3.87-.79-5.51-.79-1.63-1.63-1.75 5.32 0 9.25-.79 3.94-.79 5.51-1.63v6.05l-.24 2.05.24.25q1.81-2.42 4.42-4.3 2.6-1.87 5.99-2.96 3.38-1.09 7.74-1.09 5.69 0 9.86 1.63 4.18 1.63 5.99 3.33l-2.42 10.16v3.63q-1.57-1.93-4.54-4.05-2.96-2.12-6.71-3.57t-7.99-1.45q-4.84 0-8.59 3.87t-3.75 12.83v24.2q0 3.87.79 5.56.78 1.7 1.63 1.7m64.13 1.21q-12.1 0-18.94-3.88-6.83-3.87-9.56-10.52-2.72-6.66-2.72-15.01 0-8.47 2.85-15.12 2.84-6.66 9.61-10.59 6.78-3.93 18.76-3.93t18.75 3.93q6.78 3.93 9.62 10.59 2.85 6.65 2.85 15.12 0 8.35-2.72 15.01-2.73 6.65-9.5 10.52-6.78 3.88-19 3.88m0-8.6q7.5 0 11.62-2.42 4.11-2.42 5.68-7.07 1.58-4.66 1.58-11.32 0-6.65-1.64-11.37-1.63-4.72-5.68-7.26-4.06-2.54-11.56-2.54-7.38 0-11.5 2.6-4.11 2.6-5.74 7.38-1.64 4.78-1.64 11.31 0 6.42 1.58 11.08 1.57 4.65 5.68 7.13 4.12 2.48 11.62 2.48m65.58 8.6q-12.1 0-18.93-3.88-6.84-3.87-9.56-10.52-2.73-6.66-2.73-15.01 0-8.47 2.85-15.12 2.84-6.66 9.62-10.59 6.77-3.93 18.75-3.93t18.76 3.93q6.77 3.93 9.62 10.59 2.84 6.65 2.84 15.12 0 8.35-2.72 15.01-2.73 6.65-9.5 10.52-6.78 3.88-19 3.88m0-8.6q7.5 0 11.62-2.42 4.11-2.42 5.68-7.07 1.58-4.66 1.58-11.32 0-6.65-1.64-11.37-1.63-4.72-5.68-7.26-4.06-2.54-11.56-2.54-7.38 0-11.49 2.6-4.12 2.6-5.75 7.38t-1.63 11.31q0 6.42 1.57 11.08 1.57 4.65 5.69 7.13 4.11 2.48 11.61 2.48"/><rect width="87.215" height="25.99" x="590.825" y="360.962" fill="none" rx="0" ry="0" transform="translate(289.69 485.47)"/><path d="M882.742 866.877q-1.01 0-1.69-.49-.68-.5-.68-1.44 0-1.01.48-1.88.49-.88 1.29-1.53.81-.66 1.76-1.03.96-.37 1.9-.37t1.4.34q.46.33.46.81 0 .46-.42.98-.43.52-1.23.91-.51.23-1.17.4-.65.18-1.13.18-.37 0-.37-.12 0-.09.32-.09.3 0 .93-.17.63-.18 1.23-.48.67-.36.95-.73.27-.37.27-.67 0-.27-.22-.46-.22-.18-.61-.18-.36 0-.82.2-.67.3-1.37.98t-1.16 1.49q-.46.8-.46 1.54 0 .5.28.85.29.34.87.34.59 0 1.38-.38.78-.38 1.58-.94.81-.56 1.5-1.14.69-.57 1.1-.96.14-.14.21-.14t.07.11q0 .16-.14.28-.87.8-1.9 1.68-1.02.87-2.18 1.48t-2.43.63"/><path d="M889.642 866.907q-.92 0-1.62-.36t-1.02-1.32q-.03-.09.05-.12.08-.02.11.09.23.51.59.72.37.2.81.2.74 0 1.3-.43.56-.44 1.01-1.11.45-.66.81-1.36.35-.71.67-1.21.51-.85 1.21-1.54t1.28-.85q-.14-.07-.35-.07-.57 0-1.26.34-.69.35-1.39.9t-1.36 1.16-1.2 1.13q-.54.51-.86.81-.18.16-.27.16-.1 0-.1-.09 0-.14.12-.25.69-.6 1.42-1.35.74-.74 1.5-1.44.76-.71 1.54-1.17t1.59-.46h.17q.08 0 .17.03.26.02.47.13.22.12.13.17-.53.23-.83.92t-.55 1.61-.61 1.86-1.02 1.68q.32-.12 1.01-.53.69-.42 1.52-1.02.83-.61 1.54-1.35.09-.09.18-.09.12 0 .12.11 0 .09-.09.19-.63.59-1.38 1.27-.76.68-1.65 1.28-.88.6-1.83.98-.94.38-1.93.38"/><path d="M896.912 867.047q-.74 0-1.13-.43-.39-.44-.39-1.22 0-.74.39-1.73l.05-.11-.42.39q-.09.09-.2.09-.12 0-.12-.09 0-.12.16-.28.6-.53 1.23-1.11.64-.59 1.07-1.12-.16.07-.34.07-.19 0-.28-.09-.16-.12-.16-.41 0-.26.24-.53.24-.28 1-.49.16-.04.34-.07l.33-.04q.74-1.04 1.29-1.92.55-.89.87-1.19.14-.16.5-.27.35-.12.75-.19.41-.07.64-.07.76 0 .76.14 0 .09-.35.44-.57.55-1.34 1.37-.77.81-1.58 1.76.67.09 1.23.34.56.26.82.65.09.11.09.27 0 .19-.12.19-.09 0-.2-.12-.49-.48-1.61-.48-.23 0-.47.02-.25.02-.5.07-.78 1.01-1.42 2.02-.65 1.02-.92 1.89-.14.41-.14.76 0 .34.16.56t.48.22q.21 0 .51-.11.43-.16 1.01-.54.57-.38 1.16-.87.59-.48 1.1-.94.52-.46.87-.78.34-.32.39-.37.07-.07.11-.07.1 0 .1.14 0 .16-.14.3-.23.23-.7.69-.48.46-1.09 1.02-.6.57-1.29 1.07-.69.51-1.4.84-.7.33-1.34.33m5.98-.39q-.3 0-.46-.16-.25-.2-.25-.57 0-.53.41-.97.48-.55 1.1-.55.26 0 .46.14.26.2.26.57 0 .51-.42.97-.5.57-1.1.57m22.38.71q-.14 0-.07-.19.14-.46-.6-.79t-1.97-.51q-1.23-.17-2.63-.17-.92 0-1.82.07-.89.07-1.7.25-.55.12-1.16.34-.61.21-1.17.38-.57.16-.98.16-.28 0-.44-.1-.16-.09-.16-.41t.29-.75q.29-.42 1.08-.85.79-.42 2.29-.7.44-.09.64-.14.21-.04.6-.23 1.36-.6 2.73-1.19 1.36-.6 2.65-1.31.99-.56 1.41-1.17.41-.61.41-1.18 0-.74-.54-1.27-.54-.52-1.35-.64-.3-.05-.59-.07-.3-.02-.6-.02-1.36 0-2.44.36-1.08.35-1.71.83-.64.49-.64.83 0 .39.79.39.55 0 1.47-.23.89-.23 1.56-.55t1.11-.76q.06-.07.09-.08.02-.01.04.08.03.07.03.19 0 .34-.33.65-.32.31-.78.59-.46.27-.88.45-.43.17-.66.24-.67.16-1.22.24t-.96.08q-.79 0-1.15-.22-.37-.22-.37-.56 0-.51.62-1.08.46-.42 1.24-.82t1.77-.73q.99-.34 2.05-.53 1.06-.2 2.05-.2 1.15 0 2.1.32.96.32 1.39 1.13.26.44.26.92 0 .69-.55 1.46-.54.77-1.69 1.51-1.26.8-2.94 1.41t-3.22 1.14q1.1.02 2.3.18t2.22.51q1.02.34 1.66.9.63.55.63 1.33v.14q0 .07-.02.16-.03.21-.14.21m5.38-.28q-1.22 0-1.96-.65-.73-.66-.73-1.72 0-1.15.53-2.37t1.45-2.34q.92-1.13 2.07-2.02 1.15-.88 2.39-1.41t2.44-.53q1.4 0 2.35.69.96.69.96 2.25 0 .99-.57 2.11-.56 1.11-1.52 2.17-.97 1.06-2.19 1.92-1.22.87-2.56 1.38-1.35.52-2.66.52m.02-.57q.88 0 1.85-.38.98-.38 1.92-1.05.95-.67 1.71-1.54.76-.88 1.22-1.85.46-.98.46-1.97 0-.87-.63-1.36-.62-.48-1.72-.48-.92 0-1.9.4-.98.41-1.88 1.11-.91.7-1.63 1.57-.71.88-1.12 1.83-.42.96-.42 1.88 0 .82.57 1.33.56.51 1.57.51m21.25.85q-.13 0-.06-.19.13-.46-.6-.79-.74-.33-1.97-.51-1.23-.17-2.63-.17-.92 0-1.82.07t-1.7.25q-.55.12-1.16.34-.61.21-1.18.38-.56.16-.97.16-.28 0-.44-.1-.16-.09-.16-.41t.29-.75q.28-.42 1.08-.85.79-.42 2.29-.7.43-.09.64-.14.21-.04.6-.23 1.35-.6 2.72-1.19 1.37-.6 2.66-1.31.99-.56 1.4-1.17.42-.61.42-1.18 0-.74-.54-1.27-.54-.52-1.35-.64-.3-.05-.6-.07t-.6-.02q-1.35 0-2.43.36-1.08.35-1.72.83-.63.49-.63.83 0 .39.78.39.55 0 1.47-.23.9-.23 1.57-.55t1.1-.76q.07-.07.09-.08.03-.01.05.08.02.07.02.19 0 .34-.32.65t-.78.59q-.46.27-.89.45-.42.17-.65.24-.67.16-1.22.24t-.97.08q-.78 0-1.15-.22-.36-.22-.36-.56 0-.51.62-1.08.46-.42 1.24-.82t1.77-.73q.99-.34 2.05-.53 1.05-.2 2.04-.2 1.15 0 2.11.32.95.32 1.39 1.13.25.44.25.92 0 .69-.54 1.46t-1.69 1.51q-1.26.8-2.94 1.41t-3.22 1.14q1.1.02 2.3.18 1.19.16 2.22.51 1.02.34 1.65.9.64.55.64 1.33v.14q0 .07-.03.16-.02.21-.14.21m8.38-.33q-.65 0-1.13-.26t-.71-.77q-.19-.44-.19-.92 0-.53.17-1.09.18-.57.43-1.14-.32.02-.66.07-.33.04-.65.09-.69.11-1.27.31-.57.2-1.03.2-.6 0-.67-.23-.04-.05-.04-.1 0-.23.25-.48.34-.34.74-.63.39-.29.78-.59.69-.5 1.64-1.25.96-.75 2.01-1.55 1.06-.81 2.09-1.51 1.02-.7 1.89-1.14.88-.44 1.45-.44.32 0 .46.12.07.04.12.16.04.11-.14.09-.53-.04-1.13.46-.6.51-1.21 1.38-.6.88-1.16 1.92-.55 1.05-1.01 2.06 1.36.09 2.32.5.97.4.97 1.2 0 .07-.01.14t-.04.16q-.02.16-.13.15-.12-.01-.07-.13.14-.34-.31-.57t-1.28-.36q-.83-.12-1.86-.12-.3.78-.52 1.41t-.26.98q-.03.11-.04.22-.01.1-.01.22 0 .41.16.74.16.34.53.52.09.02.02.08t-.11.08q-.09.02-.2.02Zm-3.98-4.85q.6-.16 1.4-.26.81-.11 1.66-.15.27-.51.54-.95l.47-.78q.27-.46.54-.91.26-.44.59-.86-.23.16-.82.6t-1.35 1.01q-.76.58-1.55 1.19t-1.48 1.11"/></g><path fill="transparent" stroke="transparent" stroke-width="2.603" d="M292.29 493.6H1750v512.8H292.29z"/></g></svg>